<svg width="21" height="23" viewBox="0 0 21 23" fill="none" xmlns="http://www.w3.org/2000/svg">
    <path d="M17.5 12.4395V10.5H16V12.75C16 12.9489 16.0791 13.1396 16.2197 13.2803L18.25 15.3105V16.5H1.75V15.3105L3.78025 13.2803C3.92091 13.1396 3.99996 12.9489 4 12.75V9.75C3.99791 8.6961 4.27398 7.6603 4.80032 6.74724C5.32665 5.83417 6.08463 5.07618 6.99767 4.5498C7.91072 4.02343 8.9465 3.74733 10.0004 3.74938C11.0543 3.75144 12.089 4.03157 13 4.5615V2.88525C12.2861 2.56914 11.5267 2.36766 10.75 2.28825V0.75H9.25V2.2875C7.40093 2.4757 5.68732 3.34284 4.44053 4.72124C3.19373 6.09964 2.50233 7.89138 2.5 9.75V12.4395L0.46975 14.4697C0.329088 14.6104 0.250042 14.8011 0.25 15V17.25C0.25 17.4489 0.329018 17.6397 0.46967 17.7803C0.610322 17.921 0.801088 18 1 18H6.25V18.75C6.25 19.7446 6.64509 20.6984 7.34835 21.4016C8.05161 22.1049 9.00544 22.5 10 22.5C10.9946 22.5 11.9484 22.1049 12.6517 21.4016C13.3549 20.6984 13.75 19.7446 13.75 18.75V18H19C19.1989 18 19.3897 17.921 19.5303 17.7803C19.671 17.6397 19.75 17.4489 19.75 17.25V15C19.75 14.8011 19.6709 14.6104 19.5303 14.4697L17.5 12.4395ZM12.25 18.75C12.25 19.3467 12.0129 19.919 11.591 20.341C11.169 20.7629 10.5967 21 10 21C9.40326 21 8.83097 20.7629 8.40901 20.341C7.98705 19.919 7.75 19.3467 7.75 18.75V18H12.25V18.75Z" fill="black"/>
    <path d="M17.5 9C19.1569 9 20.5 7.65685 20.5 6C20.5 4.34315 19.1569 3 17.5 3C15.8431 3 14.5 4.34315 14.5 6C14.5 7.65685 15.8431 9 17.5 9Z" fill="black"/>
</svg>
