<svg width="10" height="12" viewBox="0 0 10 12" fill="none" xmlns="http://www.w3.org/2000/svg">
    <path d="M8 11.25L8 9.7125C8.8625 9.525 9.5 8.775 9.5 7.875C9.5 6.975 8.8625 6.225 8 6.0375L8 0.75L7.25 0.75L7.25 6.0375C6.3875 6.225 5.75 6.975 5.75 7.875C5.75 8.775 6.3875 9.525 7.25 9.7125L7.25 11.25L8 11.25ZM6.5 7.875C6.5 7.2375 6.9875 6.75 7.625 6.75C8.2625 6.75 8.75 7.2375 8.75 7.875C8.75 8.5125 8.2625 9 7.625 9C6.9875 9 6.5 8.5125 6.5 7.875ZM2 0.75L2 2.2875C1.1375 2.475 0.5 3.225 0.5 4.125C0.5 5.025 1.1375 5.775 2 5.9625L2 11.25L2.75 11.25L2.75 5.9625C3.6125 5.775 4.25 5.025 4.25 4.125C4.25 3.225 3.6125 2.475 2.75 2.2875L2.75 0.75L2 0.75ZM3.5 4.125C3.5 4.7625 3.0125 5.25 2.375 5.25C1.7375 5.25 1.25 4.7625 1.25 4.125C1.25 3.4875 1.7375 3 2.375 3C3.0125 3 3.5 3.4875 3.5 4.125Z" fill="#7D7D7D"/>
</svg>
