<svg width="199" height="49" viewBox="0 0 199 49" fill="none" xmlns="http://www.w3.org/2000/svg">
    <path d="M25.37 48H15.25L11.478 39.444H9.49999V48H0.299988V19.25H14.79C21.3833 19.25 24.68 22.608 24.68 29.324C24.68 33.924 23.254 36.96 20.402 38.432L25.37 48ZM9.49999 26.61V32.36H11.616C12.72 32.36 13.5173 32.2527 14.008 32.038C14.5293 31.7927 14.79 31.256 14.79 30.428V28.542C14.79 27.714 14.5293 27.1927 14.008 26.978C13.5173 26.7327 12.72 26.61 11.616 26.61H9.49999Z" fill="#404040"/>
    <path d="M38.0308 40.18V41.79C38.9508 41.882 39.8708 41.928 40.7908 41.928C43.6428 41.928 46.5254 41.468 49.4388 40.548L50.5428 47.31C47.1081 48.23 43.7041 48.69 40.3308 48.69C36.0374 48.69 32.9248 47.6933 30.9928 45.7C29.0914 43.676 28.1408 40.6093 28.1408 36.5C28.1408 32.3907 29.0914 29.3393 30.9928 27.346C32.9248 25.322 36.0221 24.31 40.2848 24.31C44.5781 24.31 47.5374 24.8927 49.1628 26.058C50.7881 27.2233 51.6008 29.4007 51.6008 32.59C51.6008 35.2887 50.6194 37.236 48.6568 38.432C46.7248 39.5973 43.1828 40.18 38.0308 40.18ZM38.0308 32.958V34.844H39.9168C41.0208 34.844 41.8181 34.7367 42.3088 34.522C42.8301 34.2767 43.0908 33.74 43.0908 32.912V31.026H41.2048C40.1008 31.026 39.2881 31.1487 38.7668 31.394C38.2761 31.6087 38.0308 32.13 38.0308 32.958Z" fill="#404040"/>
    <path d="M55.6225 47.218C54.9479 46.5127 54.6105 45.2553 54.6105 43.446C54.6105 41.6367 54.9479 40.364 55.6225 39.628C56.2972 38.892 57.6159 38.524 59.5785 38.524C61.5719 38.524 62.9059 38.892 63.5805 39.628C64.2552 40.364 64.5925 41.6367 64.5925 43.446C64.5925 45.2553 64.2552 46.5127 63.5805 47.218C62.9059 47.9233 61.5719 48.276 59.5785 48.276C57.6159 48.276 56.2972 47.9233 55.6225 47.218ZM55.6225 33.418C54.9479 32.7127 54.6105 31.4553 54.6105 29.646C54.6105 27.8367 54.9479 26.564 55.6225 25.828C56.2972 25.092 57.6159 24.724 59.5785 24.724C61.5719 24.724 62.9059 25.092 63.5805 25.828C64.2552 26.564 64.5925 27.8367 64.5925 29.646C64.5925 31.4553 64.2552 32.7127 63.5805 33.418C62.9059 34.1233 61.5719 34.476 59.5785 34.476C57.6159 34.476 56.2972 34.1233 55.6225 33.418Z" fill="#404040"/>
    <path d="M89.2183 26.61H82.5483V48H73.3483V26.61H66.6783V19.25H89.2183V26.61Z" fill="#404040"/>
    <path d="M92.2083 25H96.8083L99.3383 27.576C101.148 25.92 103.417 24.8313 106.146 24.31L106.698 33.004C105.962 33.0347 104.996 33.2187 103.8 33.556C102.635 33.8933 101.838 34.3227 101.408 34.844V48H92.2083V25Z" fill="#404040"/>
    <path d="M120.82 24.31C128.18 24.31 131.86 26.84 131.86 31.9V48H127.26L124.638 45.378C123.749 46.4207 122.538 47.2333 121.004 47.816C119.471 48.3987 118.014 48.69 116.634 48.69C115.285 48.69 114.196 48.5827 113.368 48.368C112.54 48.1533 111.728 47.7853 110.93 47.264C109.182 46.16 108.308 44.1053 108.308 41.1C108.308 35.58 112.479 32.82 120.82 32.82H122.66V31.164C121.679 31.1027 120.866 31.072 120.222 31.072C116.757 31.072 113.782 31.486 111.298 32.314L110.194 25.736C113.261 24.7853 116.803 24.31 120.82 24.31ZM117.6 40.088V41.974H119.486C120.836 41.974 121.694 41.8207 122.062 41.514C122.461 41.2073 122.66 40.8087 122.66 40.318V38.156H120.774C119.67 38.156 118.858 38.2787 118.336 38.524C117.846 38.7387 117.6 39.26 117.6 40.088Z" fill="#404040"/>
    <path d="M139.928 48L134.178 25H143.378L145.908 39.95H146.368L148.898 25H158.098L152.348 48H139.928Z" fill="#404040"/>
    <path d="M169.806 40.18V41.79C170.726 41.882 171.646 41.928 172.566 41.928C175.418 41.928 178.301 41.468 181.214 40.548L182.318 47.31C178.884 48.23 175.48 48.69 172.106 48.69C167.813 48.69 164.7 47.6933 162.768 45.7C160.867 43.676 159.916 40.6093 159.916 36.5C159.916 32.3907 160.867 29.3393 162.768 27.346C164.7 25.322 167.798 24.31 172.06 24.31C176.354 24.31 179.313 24.8927 180.938 26.058C182.564 27.2233 183.376 29.4007 183.376 32.59C183.376 35.2887 182.395 37.236 180.432 38.432C178.5 39.5973 174.958 40.18 169.806 40.18ZM169.806 32.958V34.844H171.692C172.796 34.844 173.594 34.7367 174.084 34.522C174.606 34.2767 174.866 33.74 174.866 32.912V31.026H172.98C171.876 31.026 171.064 31.1487 170.542 31.394C170.052 31.6087 169.806 32.13 169.806 32.958Z" fill="#404040"/>
    <path d="M196.506 17.41V41.422C197.487 41.606 198.239 41.7133 198.76 41.744L198.346 48.506C194.421 48.506 191.829 48.276 190.572 47.816C189.008 47.2333 188.042 46.4973 187.674 45.608C187.429 45.056 187.306 44.412 187.306 43.676V18.1L196.506 17.41Z" fill="#404040"/>
    <path d="M185.813 2.5277C178.408 6.8729 178.939 15.7979 173.75 19.8252C169.845 22.8563 164.336 21.3212 161.15 20.0173C161.15 20.0173 158.991 22.7424 157.442 26.3753C156.924 27.5942 154.647 26.2512 155.047 25.2193C160.109 12.1548 177.334 5.637 177.334 5.637C177.334 5.637 165.18 5.12191 157.058 15.735C156.84 13.3108 156.48 6.7522 162.77 2.73C171.297 -2.7287 187.542 1.5145 185.813 2.5277Z" fill="#404040"/>
</svg>
